# xmcd
#
# Track frame offsets: 
#        150
#        13640
#        28432
#        43102
#        55982
#        70445
#        83405
#        97000
#        111012
#        124782
#        139060
#        153277
#        165735
#        178417
#
# Disc length: 2559 seconds
#
# Revision: 0
# Processed by: cddbd v1.5PL3 Copyright (c) Steve Scherf et al.
# Submitted via: ExactAudioCopy v0.95a4
#
DISCID=c209fd0e
DTITLE=John Lee Hooker - Coast To Coast Blues Band . Anywhere-Anytime-
DTITLE=Anyplace
DYEAR=1900
DGENRE=
TTITLE0=Come Back Baby
TTITLE1=Forgive Me
TTITLE2=Street Is Filled With Women
TTITLE3=Moon Is Rising
TTITLE4=Whistle Done Blown
TTITLE5=Turnin Gray Blues
TTITLE6=She Was In Chicago
TTITLE7=Lord Taketh My Baby Away
TTITLE8=Just Like A Woman
TTITLE9=Throw This Old Dog A Bone
TTITLE10=Johnny Lees Mood
TTITLE11=Miss Eloise Miss Eloise
TTITLE12=Crying All Night
TTITLE13=Welfare Blues
EXTD=
EXTT0=
EXTT1=
EXTT2=
EXTT3=
EXTT4=
EXTT5=
EXTT6=
EXTT7=
EXTT8=
EXTT9=
EXTT10=
EXTT11=
EXTT12=
EXTT13=
PLAYORDER=
